<?xml version="1.0" encoding="UTF-8" standalone="no"?><!DOCTYPE svg PUBLIC "-//W3C//DTD SVG 1.1//EN" "http://www.w3.org/Graphics/SVG/1.1/DTD/svg11.dtd"><svg width="100%" height="100%" viewBox="0 0 173 46" version="1.1" xmlns="http://www.w3.org/2000/svg" xmlns:xlink="http://www.w3.org/1999/xlink" xml:space="preserve" xmlns:serif="http://www.serif.com/" style="fill-rule:evenodd;clip-rule:evenodd;stroke-linejoin:round;stroke-miterlimit:2;"><rect x="27.609" y="39.196" width="1.166" height="5.714" style="fill:#ff6a04;fill-rule:nonzero;"/><path d="M30.665,39.196l0,5.714l1.166,0l0,-3.463l2.631,3.463l1.042,0l0,-5.714l-1.166,0l0,3.463l-2.631,-3.463l-1.042,0Zm0.027,5.714l-0.027,0l0.027,0Z" style="fill:#ff6a04;fill-rule:nonzero;"/><path d="M37.393,39.196l0,1.174l1.688,0l0,4.54l1.201,0l0,-4.54l1.688,0l0,-1.174l-4.578,0Z" style="fill:#ff6a04;fill-rule:nonzero;"/><path d="M43.869,39.196l0,5.714l3.775,0l0,-1.167l-2.61,0l0,-1.15l2.513,0l0,-1.073l-2.513,0l0,-1.157l2.61,0l0,-1.167l-3.775,0Z" style="fill:#ff6a04;fill-rule:nonzero;"/><path d="M52.454,39.053c-1.569,0 -3.026,1.144 -3.026,3.002c0,1.855 1.457,2.998 3.026,2.998c1.313,0 1.916,-0.503 2.451,-0.929l0,-2.505l-1.83,0l0,1.129l0.756,0l0,0.816c-0.436,0.24 -0.79,0.364 -1.378,0.364c-0.935,0 -1.832,-0.863 -1.832,-1.873c0,-1.012 0.901,-1.877 1.832,-1.877c0.443,0 0.911,0.052 1.572,0.486l0.596,-0.886c-0.693,-0.487 -1.428,-0.724 -2.168,-0.725Z" style="fill:#ff6a04;fill-rule:nonzero;"/><path d="M56.797,39.196l0,5.714l1.159,0l0,-1.226l0.44,0l1.245,1.226l1.547,0l-1.436,-1.414c0.765,-0.351 1.292,-1.152 1.292,-2.056c0,-1.215 -0.953,-2.244 -2.154,-2.244l-2.093,0Zm1.159,1.159l0.934,0c0.539,0 0.995,0.462 0.995,1.085c0,0.623 -0.457,1.085 -0.995,1.085l-0.934,0l0,-2.171Z" style="fill:#ff6a04;fill-rule:nonzero;"/><path d="M64.781,39.196l-2.082,5.714l1.236,0l0.447,-1.227l2.036,0l0.447,1.227l1.236,0l-2.082,-5.714l-1.236,0Zm0.618,1.695l0.593,1.626l-1.185,0l0.593,-1.626Z" style="fill:#ff6a04;fill-rule:nonzero;"/><path d="M68.997,39.196l0,1.174l1.688,0l0,4.54l1.201,0l0,-4.54l1.688,0l0,-1.174l-4.578,0Z" style="fill:#ff6a04;fill-rule:nonzero;"/><path d="M75.472,39.196l0,5.714l3.775,0l0,-1.167l-2.61,0l0,-1.15l2.513,0l0,-1.073l-2.513,0l0,-1.157l2.61,0l0,-1.167l-3.775,0Z" style="fill:#ff6a04;fill-rule:nonzero;"/><path d="M81.142,39.196l0,5.714l1.773,0c1.639,0 2.966,-1.279 2.966,-2.857c0,-1.578 -1.327,-2.857 -2.966,-2.857l-1.773,0Zm1.166,1.071l0.607,0c0.913,0 1.797,0.821 1.797,1.786c0,0.965 -0.884,1.786 -1.797,1.786l-0.607,0l0,-3.571Z" style="fill:#ff6a04;fill-rule:nonzero;"/><path d="M92.392,39.053c-1.014,0 -1.871,0.748 -1.871,1.692c0,0.994 0.826,1.489 1.639,1.71c0.393,0.12 1.021,0.316 1.021,0.739c0,0.474 -0.444,0.669 -0.841,0.669c-0.545,0 -1.013,-0.261 -1.413,-0.558l-0.597,1.012c0.573,0.434 1.203,0.737 2.023,0.737c1.241,0 2.018,-0.918 2.018,-1.861l0,-0.005c0,-0.973 -0.79,-1.559 -1.742,-1.814c-0.309,-0.1 -0.918,-0.292 -0.918,-0.629c0,-0.347 0.362,-0.529 0.681,-0.529c0.398,0 0.713,0.155 0.98,0.316l0.654,-0.946c-0.416,-0.26 -0.862,-0.532 -1.635,-0.532Z" style="fill:#ff6a04;fill-rule:nonzero;"/><path d="M95.603,39.196l1.975,3.948l0,1.766l1.166,0l0,-1.766l1.975,-3.948l-1.304,0l-1.255,2.508l-1.255,-2.508l-1.304,0Z" style="fill:#ff6a04;fill-rule:nonzero;"/><path d="M104.062,39.053c-1.014,0 -1.871,0.748 -1.871,1.692c0,0.994 0.826,1.489 1.639,1.71c0.393,0.12 1.021,0.316 1.021,0.739c0,0.474 -0.444,0.669 -0.841,0.669c-0.545,0 -1.013,-0.261 -1.413,-0.558l-0.597,1.012c0.573,0.434 1.203,0.737 2.023,0.737c1.241,0 2.018,-0.918 2.018,-1.861l0,-0.005c0,-0.973 -0.79,-1.559 -1.742,-1.814c-0.309,-0.1 -0.918,-0.292 -0.918,-0.629c0,-0.347 0.362,-0.529 0.681,-0.529c0.398,0 0.713,0.155 0.98,0.316l0.654,-0.946c-0.416,-0.26 -0.862,-0.532 -1.635,-0.532Z" style="fill:#ff6a04;fill-rule:nonzero;"/><path d="M107.494,39.196l0,1.174l1.688,0l0,4.54l1.201,0l0,-4.54l1.688,0l0,-1.174l-4.578,0Z" style="fill:#ff6a04;fill-rule:nonzero;"/><path d="M113.969,39.196l0,5.714l3.775,0l0,-1.167l-2.61,0l0,-1.15l2.513,0l0,-1.073l-2.513,0l0,-1.157l2.61,0l0,-1.167l-3.775,0Z" style="fill:#ff6a04;fill-rule:nonzero;"/><path d="M119.639,39.196l0,5.714l1.166,0l0,-3.387l1.737,2.521l1.737,-2.52l0,3.386l1.166,0l0,-5.714l-0.962,0l-1.94,2.816l-1.94,-2.816l-0.962,0Z" style="fill:#ff6a04;fill-rule:nonzero;"/><path d="M129.179,39.053c-1.014,0 -1.871,0.748 -1.871,1.692c0,0.994 0.826,1.489 1.639,1.71c0.393,0.12 1.021,0.316 1.021,0.739c0,0.474 -0.444,0.669 -0.841,0.669c-0.545,0 -1.013,-0.261 -1.413,-0.558l-0.597,1.012c0.573,0.434 1.203,0.737 2.023,0.737c1.241,0 2.018,-0.918 2.018,-1.861l0,-0.005c0,-0.973 -0.79,-1.559 -1.742,-1.814c-0.309,-0.1 -0.918,-0.292 -0.918,-0.629c0,-0.347 0.362,-0.529 0.681,-0.529c0.398,0 0.713,0.155 0.98,0.316l0.654,-0.946c-0.416,-0.26 -0.862,-0.532 -1.635,-0.532Z" style="fill:#ff6a04;fill-rule:nonzero;"/><path d="M135.943,39.196l0,5.714l3.796,0l0,-1.167l-2.595,0l0,-4.547l-1.201,0Z" style="fill:#ff6a04;fill-rule:nonzero;"/><rect x="141.635" y="39.196" width="1.166" height="5.714" style="fill:#ff6a04;fill-rule:nonzero;"/><path d="M144.69,39.196l0,5.714l1.166,0l0,-3.387l1.737,2.521l1.737,-2.52l0,3.386l1.166,0l0,-5.714l-0.962,0l-1.94,2.816l-1.94,-2.816l-0.962,0Z" style="fill:#ff6a04;fill-rule:nonzero;"/><rect x="152.39" y="39.196" width="1.166" height="5.714" style="fill:#ff6a04;fill-rule:nonzero;"/><path d="M155.445,39.196l0,1.174l1.688,0l0,4.54l1.201,0l0,-4.54l1.688,0l0,-1.174l-4.578,0Z" style="fill:#ff6a04;fill-rule:nonzero;"/><path d="M161.92,39.196l0,5.714l3.775,0l0,-1.167l-2.61,0l0,-1.15l2.513,0l0,-1.073l-2.513,0l0,-1.157l2.61,0l0,-1.167l-3.775,0Z" style="fill:#ff6a04;fill-rule:nonzero;"/><path d="M167.59,39.196l0,5.714l1.773,0c1.639,0 2.966,-1.279 2.966,-2.857c0,-1.578 -1.327,-2.857 -2.966,-2.857l-1.773,0Zm1.166,1.071l0.607,0c0.913,0 1.797,0.821 1.797,1.786c0,0.965 -0.884,1.786 -1.797,1.786l-0.607,0l0,-3.571Z" style="fill:#ff6a04;fill-rule:nonzero;"/><path d="M27.408,3.166l0,30.488l19.35,0l0,-2.883l-16.467,0l0,-10.89l15.952,0l0,-2.884l-15.952,0l0,-10.947l16.467,0l0,-2.884l-19.35,0Z" style="fill:#033602;fill-rule:nonzero;"/><path d="M51.423,3.166l0,30.488l2.883,0l0,-13.773l15.952,0l0,-2.884l-15.952,0l0,-10.947l16.467,0l0,-2.884l-19.35,0Z" style="fill:#033602;fill-rule:nonzero;"/><path d="M121.44,2.4c-8.81,0 -15.983,7.183 -15.983,16.01c0,8.828 7.174,16.01 15.983,16.01c8.811,0 15.983,-7.182 15.983,-16.01c0,-8.827 -7.173,-16.01 -15.983,-16.01Zm0,2.901c7.243,0 13.083,5.852 13.083,13.109c0,7.258 -5.841,13.11 -13.083,13.11c-7.243,0 -13.083,-5.852 -13.083,-13.11c0,-7.257 5.841,-13.109 13.083,-13.109Z" style="fill:#033602;fill-rule:nonzero;"/><path d="M141.537,3.166l0,30.488l2.883,0l0,-26.547l12.236,17.757l12.236,-17.757l0,26.547l2.884,0l0,-30.488l-3.67,0l-11.451,16.618l-11.45,-16.618l-3.67,0Z" style="fill:#033602;fill-rule:nonzero;"/><path d="M0,40.202l1.939,-2.254c2.927,2.518 6.121,3.72 9.052,3.72c1.041,-0 2.046,-0.152 2.988,-0.451c3.44,-1.092 5.929,-4.27 5.929,-8.21l-0,-26.857l-12.462,-0.028l0.007,-2.973l15.428,0.034l0,29.823c0,5.307 -3.37,9.573 -8.002,11.044c-1.226,0.389 -2.532,0.59 -3.887,0.59c-3.55,0 -7.446,-1.39 -10.991,-4.439Z" style="fill:#033602;"/><path d="M98.326,0l-16.632,21.768l11.251,-2.446l-12.474,19.078l17.121,-22.013l-11.496,2.201l12.229,-18.589Z" style="fill:#ff6501;"/><path d="M99.677,27.171l1.731,1.625c-2.786,2.967 -6.743,4.821 -11.13,4.821c-8.425,0 -15.265,-6.84 -15.265,-15.265c0,-8.425 6.84,-15.265 15.265,-15.265c4.091,0 7.808,1.612 10.549,4.236l-1.641,1.715c-2.315,-2.215 -5.454,-3.577 -8.908,-3.577c-7.115,0 -12.891,5.776 -12.891,12.891c0,7.115 5.776,12.891 12.891,12.891c3.705,0 7.046,-1.566 9.399,-4.072Z" style="fill:#ff6501;"/><path d="M101.643,7.827l2.079,2.599l-8.575,4.418l6.496,-7.016Z" style="fill:#ff6501;"/></svg>